Peel 2.ufo
<glyph name="quotedbl" format="1">
  <advance width="826"/>
  <unicode hex="0022"/>
  <outline>
    <contour>
      <point x="279" y="961" type="curve" smooth="yes"/>
      <point x="295" y="961"/>
      <point x="313" y="987"/>
      <point x="318" y="1035" type="curve"/>
      <point x="374" y="1420" type="line" smooth="yes"/>
      <point x="375" y="1424"/>
      <point x="375" y="1429"/>
      <point x="375" y="1435" type="curve" smooth="yes"/>
      <point x="375" y="1489"/>
      <point x="329" y="1515"/>
      <point x="282" y="1515" type="curve" smooth="yes"/>
      <point x="235" y="1515"/>
      <point x="187" y="1488"/>
      <point x="187" y="1434" type="curve" smooth="yes"/>
      <point x="187" y="1429"/>
      <point x="188" y="1424"/>
      <point x="188" y="1420" type="curve" smooth="yes"/>
      <point x="241" y="1034" type="line"/>
      <point x="245" y="985"/>
      <point x="260" y="961"/>
    </contour>
    <contour>
      <point x="544" y="961" type="curve" smooth="yes"/>
      <point x="560" y="961"/>
      <point x="577" y="987"/>
      <point x="584" y="1035" type="curve" smooth="yes"/>
      <point x="640" y="1420" type="line" smooth="yes"/>
      <point x="641" y="1424"/>
      <point x="641" y="1429"/>
      <point x="641" y="1435" type="curve" smooth="yes"/>
      <point x="641" y="1489"/>
      <point x="595" y="1515"/>
      <point x="547" y="1515" type="curve" smooth="yes"/>
      <point x="501" y="1515"/>
      <point x="453" y="1488"/>
      <point x="453" y="1434" type="curve" smooth="yes"/>
      <point x="453" y="1429"/>
      <point x="454" y="1424"/>
      <point x="454" y="1420" type="curve" smooth="yes"/>
      <point x="506" y="1034" type="line"/>
      <point x="511" y="985"/>
      <point x="527" y="961"/>
    </contour>
  </outline>
</glyph>
<glyph name="dollar" format="1">
  <advance width="1122"/>
  <unicode hex="0024"/>
  <outline>
    <contour>
      <point x="587" y="-212" type="curve" smooth="yes"/>
      <point x="607" y="-212"/>
      <point x="627" y="-190"/>
      <point x="627" y="-147" type="curve" smooth="yes"/>
      <point x="627" y="-7" type="line"/>
      <point x="819" y="26"/>
      <point x="983" y="159"/>
      <point x="983" y="390" type="curve" smooth="yes"/>
      <point x="983" y="534"/>
      <point x="932" y="643"/>
      <point x="755" y="768" type="curve" smooth="yes"/>
      <point x="627" y="859" type="line"/>
      <point x="627" y="1357" type="line"/>
      <point x="763" y="1347"/>
      <point x="898" y="1247"/>
      <point x="926" y="1224" type="curve"/>
      <point x="926" y="1439" type="line"/>
      <point x="899" y="1464"/>
      <point x="760" y="1525"/>
      <point x="627" y="1535" type="curve"/>
      <point x="627" y="1674" type="line" smooth="yes"/>
      <point x="627" y="1717"/>
      <point x="607" y="1739"/>
      <point x="587" y="1739" type="curve" smooth="yes"/>
      <point x="564" y="1739"/>
      <point x="540" y="1715"/>
      <point x="540" y="1672" type="curve" smooth="yes"/>
      <point x="540" y="1535" type="line"/>
      <point x="287" y="1514"/>
      <point x="145" y="1334"/>
      <point x="145" y="1149" type="curve" smooth="yes"/>
      <point x="145" y="1033"/>
      <point x="200" y="913"/>
      <point x="318" y="831" type="curve"/>
      <point x="540" y="671" type="line"/>
      <point x="540" y="166" type="line"/>
      <point x="365" y="169"/>
      <point x="269" y="266"/>
      <point x="176" y="343" type="curve"/>
      <point x="176" y="121" type="line"/>
      <point x="272" y="32"/>
      <point x="404" y="-14"/>
      <point x="535" y="-14" type="curve" smooth="yes"/>
      <point x="535" y="-14"/>
      <point x="540" y="-145"/>
      <point x="540" y="-145" type="curve"/>
      <point x="540" y="-188"/>
      <point x="564" y="-212"/>
    </contour>
    <contour>
      <point x="540" y="919" type="line"/>
      <point x="540" y="919"/>
      <point x="353" y="1092"/>
      <point x="353" y="1170" type="curve" smooth="yes"/>
      <point x="353" y="1257"/>
      <point x="416" y="1334"/>
      <point x="540" y="1354" type="curve"/>
    </contour>
    <contour>
      <point x="627" y="174" type="curve"/>
      <point x="627" y="174"/>
      <point x="633" y="605"/>
      <point x="633" y="605" type="curve"/>
      <point x="772" y="505"/>
      <point x="792" y="446"/>
      <point x="792" y="376" type="curve" smooth="yes"/>
      <point x="792" y="266"/>
      <point x="723" y="198"/>
    </contour>
  </outline>
</glyph>
<glyph name="period" format="1">
  <advance width="494"/>
  <unicode hex="002E"/>
  <outline>
    <contour>
      <point x="248" y="-18" type="curve" smooth="yes"/>
      <point x="312" y="-18"/>
      <point x="378" y="24"/>
      <point x="378" y="110" type="curve" smooth="yes"/>
      <point x="378" y="197"/>
      <point x="312" y="243"/>
      <point x="248" y="243" type="curve" smooth="yes"/>
      <point x="183" y="243"/>
      <point x="118" y="199"/>
      <point x="118" y="110" type="curve" smooth="yes"/>
      <point x="118" y="24"/>
      <point x="183" y="-18"/>
    </contour>
  </outline>
</glyph>
<glyph name="five" format="1">
  <advance width="995"/>
  <unicode hex="0035"/>
  <outline>
    <contour>
      <point x="420" y="-20" type="curve" smooth="yes"/>
      <point x="763" y="-20"/>
      <point x="966" y="184"/>
      <point x="966" y="487" type="curve" smooth="yes"/>
      <point x="966" y="746"/>
      <point x="816" y="949"/>
      <point x="507" y="949" type="curve" smooth="yes"/>
      <point x="422" y="949"/>
      <point x="341" y="925"/>
      <point x="258" y="875" type="curve"/>
      <point x="263" y="1022"/>
      <point x="266" y="1209"/>
      <point x="273" y="1355" type="curve"/>
      <point x="893" y="1355" type="line"/>
      <point x="908" y="1521" type="line"/>
      <point x="131" y="1521" type="line"/>
      <point x="89" y="710" type="line"/>
      <point x="231" y="690" type="line"/>
      <point x="296" y="761"/>
      <point x="376" y="789"/>
      <point x="473" y="789" type="curve" smooth="yes"/>
      <point x="678" y="789"/>
      <point x="783" y="659"/>
      <point x="783" y="486" type="curve" smooth="yes"/>
      <point x="783" y="288"/>
      <point x="650" y="144"/>
      <point x="427" y="144" type="curve" smooth="yes"/>
      <point x="260" y="144"/>
      <point x="145" y="214"/>
      <point x="80" y="263" type="curve"/>
      <point x="13" y="119" type="line"/>
      <point x="103" y="37"/>
      <point x="244" y="-20"/>
    </contour>
  </outline>
</glyph>
<glyph name="eight" format="1">
  <advance width="1176"/>
  <unicode hex="0038"/>
  <outline>
    <contour>
      <point x="596" y="-19" type="curve" smooth="yes"/>
      <point x="837" y="-19"/>
      <point x="1080" y="107"/>
      <point x="1080" y="355" type="curve" smooth="yes"/>
      <point x="1080" y="509"/>
      <point x="992" y="671"/>
      <point x="792" y="793" type="curve"/>
      <point x="969" y="891"/>
      <point x="1050" y="1035"/>
      <point x="1050" y="1179" type="curve"/>
      <point x="1048" y="1179" type="line"/>
      <point x="1048" y="1362"/>
      <point x="877" y="1535"/>
      <point x="588" y="1535" type="curve" smooth="yes"/>
      <point x="297" y="1535"/>
      <point x="132" y="1362"/>
      <point x="132" y="1173" type="curve" smooth="yes"/>
      <point x="132" y="1026"/>
      <point x="219" y="878"/>
      <point x="407" y="793" type="curve"/>
      <point x="193" y="688"/>
      <point x="101" y="521"/>
      <point x="101" y="354" type="curve" smooth="yes"/>
      <point x="101" y="108"/>
      <point x="355" y="-19"/>
    </contour>
    <contour>
      <point x="589" y="859" type="curve"/>
      <point x="406" y="900"/>
      <point x="300" y="1045"/>
      <point x="300" y="1173" type="curve"/>
      <point x="301" y="1173" type="line"/>
      <point x="301" y="1316"/>
      <point x="445" y="1388"/>
      <point x="589" y="1388" type="curve" smooth="yes"/>
      <point x="733" y="1388"/>
      <point x="877" y="1316"/>
      <point x="877" y="1173" type="curve" smooth="yes"/>
      <point x="877" y="1045"/>
      <point x="770" y="900"/>
    </contour>
    <contour>
      <point x="589" y="128" type="curve" smooth="yes"/>
      <point x="430" y="128"/>
      <point x="283" y="209"/>
      <point x="283" y="375" type="curve" smooth="yes"/>
      <point x="283" y="519"/>
      <point x="384" y="654"/>
      <point x="589" y="721" type="curve"/>
      <point x="773" y="676"/>
      <point x="902" y="518"/>
      <point x="902" y="380" type="curve" smooth="yes"/>
      <point x="902" y="202"/>
      <point x="747" y="128"/>
    </contour>
  </outline>
</glyph>
<glyph name="C" format="1">
  <advance width="1533"/>
  <unicode hex="0043"/>
  <outline>
    <contour>
      <point x="904" y="-19" type="curve" smooth="yes"/>
      <point x="1059" y="-19"/>
      <point x="1213" y="21"/>
      <point x="1390" y="115" type="curve"/>
      <point x="1390" y="325" type="line"/>
      <point x="1253" y="217"/>
      <point x="1076" y="161"/>
      <point x="915" y="161" type="curve" smooth="yes"/>
      <point x="607" y="161"/>
      <point x="324" y="354"/>
      <point x="324" y="756" type="curve" smooth="yes"/>
      <point x="324" y="1127"/>
      <point x="603" y="1351"/>
      <point x="921" y="1351" type="curve" smooth="yes"/>
      <point x="1063" y="1351"/>
      <point x="1224" y="1303"/>
      <point x="1390" y="1217" type="curve"/>
      <point x="1390" y="1433" type="line"/>
      <point x="1237" y="1498"/>
      <point x="1066" y="1536"/>
      <point x="919" y="1536" type="curve" smooth="yes"/>
      <point x="480" y="1536"/>
      <point x="105" y="1239"/>
      <point x="105" y="759" type="curve" smooth="yes"/>
      <point x="105" y="327"/>
      <point x="430" y="-19"/>
    </contour>
  </outline>
</glyph>
<glyph name="G" format="1">
  <advance width="1566"/>
  <unicode hex="0047"/>
  <outline>
    <contour>
      <point x="871" y="-19" type="curve" smooth="yes"/>
      <point x="1028" y="-19"/>
      <point x="1211" y="17"/>
      <point x="1422" y="106" type="curve"/>
      <point x="1422" y="731" type="line"/>
      <point x="954" y="731" type="line"/>
      <point x="954" y="557" type="line"/>
      <point x="1229" y="557" type="line"/>
      <point x="1228" y="219" type="line"/>
      <point x="1106" y="168"/>
      <point x="990" y="145"/>
      <point x="887" y="145" type="curve" smooth="yes"/>
      <point x="532" y="145"/>
      <point x="304" y="411"/>
      <point x="304" y="731" type="curve" smooth="yes"/>
      <point x="304" y="1134"/>
      <point x="593" y="1376"/>
      <point x="937" y="1376" type="curve" smooth="yes"/>
      <point x="1082" y="1376"/>
      <point x="1239" y="1333"/>
      <point x="1387" y="1242" type="curve"/>
      <point x="1387" y="1409" type="line"/>
      <point x="1236" y="1496"/>
      <point x="1078" y="1536"/>
      <point x="922" y="1536" type="curve" smooth="yes"/>
      <point x="469" y="1536"/>
      <point x="107" y="1206"/>
      <point x="107" y="733" type="curve" smooth="yes"/>
      <point x="107" y="391"/>
      <point x="348" y="-19"/>
    </contour>
  </outline>
</glyph>
<glyph name="J" format="1">
  <advance width="627"/>
  <unicode hex="004A"/>
  <outline>
    <contour>
      <point x="14" y="-394" type="line"/>
      <point x="334" y="-393"/>
      <point x="470" y="-289"/>
      <point x="470" y="-44" type="curve" smooth="yes"/>
      <point x="470" y="1514" type="line"/>
      <point x="279" y="1514" type="line"/>
      <point x="279" y="23" type="line" smooth="yes"/>
      <point x="279" y="-177"/>
      <point x="246" y="-240"/>
      <point x="14" y="-240" type="curve"/>
    </contour>
  </outline>
</glyph>
<glyph name="M" format="1">
  <advance width="1693"/>
  <unicode hex="004D"/>
  <outline>
    <contour>
      <point x="168" y="0" type="line"/>
      <point x="359" y="0" type="line"/>
      <point x="359" y="1204" type="line"/>
      <point x="832" y="605" type="line"/>
      <point x="866" y="605" type="line"/>
      <point x="1334" y="1189" type="line"/>
      <point x="1334" y="0" type="line"/>
      <point x="1525" y="0" type="line"/>
      <point x="1525" y="1516" type="line"/>
      <point x="1348" y="1516" type="line"/>
      <point x="849" y="876" type="line"/>
      <point x="342" y="1516" type="line"/>
      <point x="168" y="1516" type="line"/>
    </contour>
  </outline>
</glyph>
<glyph name="O" format="1">
  <advance width="1777"/>
  <unicode hex="004F"/>
  <outline>
    <contour>
      <point x="888" y="163" type="curve" smooth="yes"/>
      <point x="573" y="163"/>
      <point x="316" y="430"/>
      <point x="316" y="759" type="curve" smooth="yes"/>
      <point x="316" y="1088"/>
      <point x="573" y="1356"/>
      <point x="888" y="1356" type="curve" smooth="yes"/>
      <point x="1203" y="1356"/>
      <point x="1462" y="1088"/>
      <point x="1462" y="759" type="curve" smooth="yes"/>
      <point x="1462" y="430"/>
      <point x="1203" y="163"/>
    </contour>
    <contour>
      <point x="888" y="-19" type="curve" smooth="yes"/>
      <point x="1312" y="-19"/>
      <point x="1661" y="331"/>
      <point x="1661" y="759" type="curve" smooth="yes"/>
      <point x="1661" y="1189"/>
      <point x="1312" y="1536"/>
      <point x="888" y="1536" type="curve" smooth="yes"/>
      <point x="463" y="1536"/>
      <point x="116" y="1189"/>
      <point x="116" y="759" type="curve" smooth="yes"/>
      <point x="116" y="331"/>
      <point x="463" y="-19"/>
    </contour>
  </outline>
</glyph>
<glyph name="bracketright" format="1">
  <advance width="713"/>
  <unicode hex="005D"/>
  <outline>
    <contour>
      <point x="91" y="-18" type="line"/>
      <point x="667" y="-18" type="line"/>
      <point x="667" y="1567" type="line"/>
      <point x="91" y="1567" type="line"/>
      <point x="91" y="1382" type="line"/>
      <point x="453" y="1382" type="line"/>
      <point x="453" y="167" type="line"/>
      <point x="91" y="167" type="line"/>
    </contour>
  </outline>
</glyph>
<glyph name="h" format="1">
  <advance width="1057"/>
  <unicode hex="0068"/>
  <outline>
    <contour>
      <point x="173" y="0" type="line"/>
      <point x="352" y="0" type="line"/>
      <point x="352" y="730" type="line"/>
      <point x="409" y="803"/>
      <point x="573" y="862"/>
      <point x="643" y="862" type="curve" smooth="yes"/>
      <point x="769" y="862"/>
      <point x="819" y="787"/>
      <point x="819" y="600" type="curve" smooth="yes"/>
      <point x="819" y="0" type="line"/>
      <point x="998" y="0" type="line"/>
      <point x="998" y="661" type="line" smooth="yes"/>
      <point x="998" y="906"/>
      <point x="840" y="1017"/>
      <point x="666" y="1017" type="curve" smooth="yes"/>
      <point x="556" y="1017"/>
      <point x="439" y="971"/>
      <point x="352" y="889" type="curve"/>
      <point x="352" y="1491" type="line"/>
      <point x="173" y="1491" type="line"/>
    </contour>
  </outline>
</glyph>
<glyph name="l" format="1">
  <advance width="642"/>
  <unicode hex="006C"/>
  <outline>
    <contour>
      <point x="427" y="-18" type="curve" smooth="yes"/>
      <point x="495" y="-18"/>
      <point x="563" y="0"/>
      <point x="620" y="36" type="curve"/>
      <point x="620" y="189" type="line"/>
      <point x="563" y="157"/>
      <point x="501" y="130"/>
      <point x="449" y="130" type="curve" smooth="yes"/>
      <point x="386" y="130"/>
      <point x="336" y="172"/>
      <point x="336" y="303" type="curve" smooth="yes"/>
      <point x="336" y="1490" type="line"/>
      <point x="158" y="1490" type="line"/>
      <point x="158" y="274" type="line" smooth="yes"/>
      <point x="158" y="73"/>
      <point x="287" y="-18"/>
    </contour>
  </outline>
</glyph>
<glyph name="cent" format="1">
  <advance width="992"/>
  <unicode hex="00A2"/>
  <outline>
    <contour>
      <point x="561" y="-215" type="line"/>
      <point x="647" y="-215" type="line"/>
      <point x="647" y="2" type="line"/>
      <point x="703" y="6"/>
      <point x="816" y="19"/>
      <point x="890" y="63" type="curve"/>
      <point x="890" y="231" type="line"/>
      <point x="873" y="231" type="line"/>
      <point x="805" y="190"/>
      <point x="724" y="158"/>
      <point x="647" y="152" type="curve"/>
      <point x="647" y="848" type="line"/>
      <point x="736" y="846"/>
      <point x="785" y="826"/>
      <point x="865" y="782" type="curve"/>
      <point x="865" y="946" type="line"/>
      <point x="817" y="977"/>
      <point x="727" y="995"/>
      <point x="647" y="1000" type="curve"/>
      <point x="647" y="1254" type="line"/>
      <point x="561" y="1255" type="line"/>
      <point x="561" y="997" type="line"/>
      <point x="316" y="975"/>
      <point x="108" y="779"/>
      <point x="108" y="496" type="curve" smooth="yes"/>
      <point x="108" y="222"/>
      <point x="301" y="27"/>
      <point x="561" y="1" type="curve"/>
    </contour>
    <contour>
      <point x="561" y="155" type="line"/>
      <point x="376" y="190"/>
      <point x="290" y="346"/>
      <point x="293" y="501" type="curve" smooth="yes"/>
      <point x="296" y="656"/>
      <point x="388" y="810"/>
      <point x="560" y="840" type="curve"/>
      <point x="560" y="840"/>
      <point x="561" y="156"/>
      <point x="561" y="156" type="curve"/>
    </contour>
  </outline>
</glyph>
<glyph name="sterling" format="1">
  <advance width="1195"/>
  <unicode hex="00A3"/>
  <outline>
    <contour>
      <point x="231" y="0" type="line"/>
      <point x="1100" y="0" type="line"/>
      <point x="1100" y="164" type="line"/>
      <point x="424" y="164" type="line"/>
      <point x="424" y="648" type="line"/>
      <point x="750" y="648" type="line"/>
      <point x="750" y="776" type="line"/>
      <point x="425" y="776" type="line"/>
      <point x="438" y="1154"/>
      <point x="581" y="1376"/>
      <point x="799" y="1376" type="curve" smooth="yes"/>
      <point x="886" y="1376"/>
      <point x="986" y="1340"/>
      <point x="1095" y="1263" type="curve"/>
      <point x="1095" y="1433" type="line"/>
      <point x="981" y="1507"/>
      <point x="872" y="1541"/>
      <point x="774" y="1541" type="curve" smooth="yes"/>
      <point x="467" y="1541"/>
      <point x="249" y="1228"/>
      <point x="232" y="776" type="curve"/>
      <point x="86" y="776" type="line"/>
      <point x="86" y="648" type="line"/>
      <point x="231" y="648" type="line"/>
    </contour>
  </outline>
</glyph>
<glyph name="copyright" format="1">
  <advance width="1814"/>
  <unicode hex="00A9"/>
  <outline>
    <contour>
      <point x="917" y="237" type="curve" smooth="yes"/>
      <point x="992" y="237"/>
      <point x="1061" y="253"/>
      <point x="1144" y="292" type="curve"/>
      <point x="1144" y="405" type="line"/>
      <point x="1061" y="365"/>
      <point x="990" y="346"/>
      <point x="920" y="346" type="curve" smooth="yes"/>
      <point x="712" y="346"/>
      <point x="590" y="507"/>
      <point x="590" y="720" type="curve" smooth="yes"/>
      <point x="590" y="931"/>
      <point x="732" y="1101"/>
      <point x="936" y="1101" type="curve" smooth="yes"/>
      <point x="997" y="1101"/>
      <point x="1074" y="1085"/>
      <point x="1144" y="1053" type="curve"/>
      <point x="1144" y="1164" type="line"/>
      <point x="1076" y="1193"/>
      <point x="992" y="1208"/>
      <point x="926" y="1208" type="curve" smooth="yes"/>
      <point x="666" y="1208"/>
      <point x="459" y="1001"/>
      <point x="459" y="719" type="curve" smooth="yes"/>
      <point x="459" y="437"/>
      <point x="658" y="237"/>
    </contour>
    <contour>
      <point x="907" y="116" type="curve" smooth="yes"/>
      <point x="616" y="116"/>
      <point x="321" y="320"/>
      <point x="321" y="724" type="curve" smooth="yes"/>
      <point x="321" y="1130"/>
      <point x="616" y="1331"/>
      <point x="906" y="1331" type="curve" smooth="yes"/>
      <point x="1197" y="1331"/>
      <point x="1493" y="1128"/>
      <point x="1493" y="724" type="curve" smooth="yes"/>
      <point x="1493" y="319"/>
      <point x="1198" y="116"/>
    </contour>
    <contour>
      <point x="905" y="0" type="curve" smooth="yes"/>
      <point x="1265" y="0"/>
      <point x="1630" y="243"/>
      <point x="1630" y="724" type="curve" smooth="yes"/>
      <point x="1630" y="1207"/>
      <point x="1267" y="1446"/>
      <point x="908" y="1446" type="curve" smooth="yes"/>
      <point x="549" y="1446"/>
      <point x="184" y="1207"/>
      <point x="184" y="724" type="curve" smooth="yes"/>
      <point x="184" y="242"/>
      <point x="546" y="0"/>
    </contour>
  </outline>
</glyph>
<glyph name="AE" format="1">
  <advance width="1642"/>
  <unicode hex="00C6"/>
  <outline>
    <contour>
      <point x="48" y="0" type="line"/>
      <point x="264" y="0" type="line"/>
      <point x="484" y="487" type="line"/>
      <point x="811" y="487" type="line"/>
      <point x="811" y="0" type="line"/>
      <point x="1555" y="0" type="line"/>
      <point x="1555" y="177" type="line"/>
      <point x="1002" y="177" type="line"/>
      <point x="1002" y="682" type="line"/>
      <point x="1529" y="682" type="line"/>
      <point x="1529" y="856" type="line"/>
      <point x="1002" y="856" type="line"/>
      <point x="1002" y="1339" type="line"/>
      <point x="1543" y="1339" type="line"/>
      <point x="1543" y="1516" type="line"/>
      <point x="731" y="1516" type="line"/>
    </contour>
    <contour>
      <point x="556" y="662" type="line"/>
      <point x="811" y="1265" type="line"/>
      <point x="811" y="662" type="line"/>
    </contour>
  </outline>
</glyph>
<glyph name="Egrave" format="1">
  <advance width="1060"/>
  <unicode hex="00C8"/>
  <outline>
    <contour>
      <point x="128" y="0" type="line"/>
      <point x="973" y="0" type="line"/>
      <point x="973" y="176" type="line"/>
      <point x="319" y="176" type="line"/>
      <point x="319" y="682" type="line"/>
      <point x="946" y="682" type="line"/>
      <point x="946" y="856" type="line"/>
      <point x="319" y="856" type="line"/>
      <point x="319" y="1339" type="line"/>
      <point x="960" y="1339" type="line"/>
      <point x="960" y="1515" type="line"/>
      <point x="128" y="1515" type="line"/>
    </contour>
    <contour>
      <point x="673" y="1668" type="curve" smooth="yes"/>
      <point x="679" y="1668"/>
      <point x="682" y="1673"/>
      <point x="682" y="1682" type="curve" smooth="yes"/>
      <point x="682" y="1687"/>
      <point x="682" y="1694"/>
      <point x="680" y="1701" type="curve" smooth="yes"/>
      <point x="594" y="2078" type="line"/>
      <point x="575" y="2141"/>
      <point x="536" y="2164"/>
      <point x="498" y="2164" type="curve" smooth="yes"/>
      <point x="451" y="2164"/>
      <point x="406" y="2128"/>
      <point x="406" y="2075" type="curve" smooth="yes"/>
      <point x="406" y="2050"/>
      <point x="416" y="2022"/>
      <point x="437" y="1994" type="curve"/>
      <point x="647" y="1687" type="line" smooth="yes"/>
      <point x="656" y="1673"/>
      <point x="667" y="1668"/>
    </contour>
  </outline>
</glyph>
<glyph name="Ecircumflex" format="1">
  <advance width="1060"/>
  <unicode hex="00CA"/>
  <outline>
    <contour>
      <point x="128" y="0" type="line"/>
      <point x="973" y="0" type="line"/>
      <point x="973" y="177" type="line"/>
      <point x="319" y="177" type="line"/>
      <point x="319" y="682" type="line"/>
      <point x="946" y="682" type="line"/>
      <point x="946" y="856" type="line"/>
      <point x="319" y="856" type="line"/>
      <point x="319" y="1339" type="line"/>
      <point x="960" y="1339" type="line"/>
      <point x="960" y="1516" type="line"/>
      <point x="128" y="1516" type="line"/>
    </contour>
    <contour>
      <point x="246" y="1669" type="curve"/>
      <point x="247" y="1669"/>
      <point x="247" y="1669"/>
      <point x="248" y="1670" type="curve" smooth="yes"/>
      <point x="545" y="1876" type="line"/>
      <point x="840" y="1670" type="line" smooth="yes"/>
      <point x="841" y="1669"/>
      <point x="842" y="1669"/>
      <point x="843" y="1669" type="curve" smooth="yes"/>
      <point x="844" y="1669"/>
      <point x="846" y="1670"/>
      <point x="846" y="1671" type="curve"/>
      <point x="846" y="1674" type="line"/>
      <point x="582" y="2081" type="line" smooth="yes"/>
      <point x="576" y="2089"/>
      <point x="556" y="2096"/>
      <point x="545" y="2096" type="curve" smooth="yes"/>
      <point x="529" y="2096"/>
      <point x="513" y="2089"/>
      <point x="507" y="2081" type="curve" smooth="yes"/>
      <point x="243" y="1674" type="line"/>
      <point x="239" y="1674"/>
      <point x="239" y="1672"/>
      <point x="239" y="1671" type="curve" smooth="yes"/>
      <point x="239" y="1670"/>
      <point x="244" y="1669"/>
    </contour>
  </outline>
</glyph>
<glyph name="Icircumflex" format="1">
  <advance width="429"/>
  <unicode hex="00CE"/>
  <outline>
    <contour>
      <point x="-84" y="1669" type="curve"/>
      <point x="-83" y="1669"/>
      <point x="-83" y="1669"/>
      <point x="-80" y="1670" type="curve"/>
      <point x="215" y="1876" type="line"/>
      <point x="511" y="1670" type="line"/>
      <point x="514" y="1669"/>
      <point x="515" y="1669"/>
      <point x="516" y="1669" type="curve" smooth="yes"/>
      <point x="517" y="1669"/>
      <point x="518" y="1670"/>
      <point x="518" y="1671" type="curve"/>
      <point x="518" y="1674" type="line"/>
      <point x="254" y="2081" type="line"/>
      <point x="247" y="2089"/>
      <point x="229" y="2096"/>
      <point x="215" y="2096" type="curve" smooth="yes"/>
      <point x="201" y="2096"/>
      <point x="186" y="2089"/>
      <point x="178" y="2081" type="curve"/>
      <point x="-87" y="1674" type="line"/>
      <point x="-88" y="1674"/>
      <point x="-88" y="1672"/>
      <point x="-88" y="1671" type="curve" smooth="yes"/>
      <point x="-88" y="1670"/>
      <point x="-86" y="1669"/>
    </contour>
    <contour>
      <point x="119" y="0" type="line"/>
      <point x="311" y="0" type="line"/>
      <point x="311" y="1516" type="line"/>
      <point x="119" y="1516" type="line"/>
    </contour>
  </outline>
</glyph>
<glyph name="Odieresis" format="1">
  <advance width="1757"/>
  <unicode hex="00D6"/>
  <outline>
    <contour>
      <point x="687" y="1667" type="curve" smooth="yes"/>
      <point x="745" y="1667"/>
      <point x="804" y="1703"/>
      <point x="804" y="1781" type="curve" smooth="yes"/>
      <point x="804" y="1858"/>
      <point x="745" y="1901"/>
      <point x="687" y="1901" type="curve" smooth="yes"/>
      <point x="628" y="1901"/>
      <point x="571" y="1858"/>
      <point x="571" y="1781" type="curve" smooth="yes"/>
      <point x="571" y="1704"/>
      <point x="628" y="1667"/>
    </contour>
    <contour>
      <point x="877" y="161" type="curve" smooth="yes"/>
      <point x="562" y="161"/>
      <point x="305" y="429"/>
      <point x="305" y="758" type="curve" smooth="yes"/>
      <point x="305" y="1087"/>
      <point x="562" y="1355"/>
      <point x="877" y="1355" type="curve" smooth="yes"/>
      <point x="1192" y="1355"/>
      <point x="1451" y="1087"/>
      <point x="1451" y="758" type="curve" smooth="yes"/>
      <point x="1451" y="429"/>
      <point x="1192" y="161"/>
    </contour>
    <contour>
      <point x="877" y="-20" type="curve" smooth="yes"/>
      <point x="1301" y="-20"/>
      <point x="1650" y="330"/>
      <point x="1650" y="758" type="curve" smooth="yes"/>
      <point x="1650" y="1187"/>
      <point x="1301" y="1535"/>
      <point x="877" y="1535" type="curve" smooth="yes"/>
      <point x="452" y="1535"/>
      <point x="105" y="1187"/>
      <point x="105" y="758" type="curve" smooth="yes"/>
      <point x="105" y="330"/>
      <point x="452" y="-20"/>
    </contour>
    <contour>
      <point x="1063" y="1667" type="curve" smooth="yes"/>
      <point x="1121" y="1667"/>
      <point x="1180" y="1703"/>
      <point x="1180" y="1781" type="curve" smooth="yes"/>
      <point x="1180" y="1858"/>
      <point x="1121" y="1901"/>
      <point x="1063" y="1901" type="curve" smooth="yes"/>
      <point x="1006" y="1901"/>
      <point x="946" y="1858"/>
      <point x="946" y="1781" type="curve" smooth="yes"/>
      <point x="946" y="1704"/>
      <point x="1006" y="1667"/>
    </contour>
  </outline>
</glyph>
<glyph name="iacute" format="1">
  <advance width="456"/>
  <unicode hex="00ED"/>
  <outline>
    <contour>
      <point x="115" y="1149" type="curve" smooth="yes"/>
      <point x="121" y="1149"/>
      <point x="130" y="1154"/>
      <point x="140" y="1168" type="curve" smooth="yes"/>
      <point x="362" y="1459" type="line"/>
      <point x="385" y="1492"/>
      <point x="394" y="1521"/>
      <point x="394" y="1545" type="curve" smooth="yes"/>
      <point x="394" y="1599"/>
      <point x="350" y="1631"/>
      <point x="304" y="1631" type="curve" smooth="yes"/>
      <point x="263" y="1631"/>
      <point x="224" y="1607"/>
      <point x="206" y="1545" type="curve"/>
      <point x="111" y="1182" type="line"/>
      <point x="109" y="1177"/>
      <point x="105" y="1167"/>
      <point x="105" y="1164" type="curve" smooth="yes"/>
      <point x="105" y="1154"/>
      <point x="111" y="1149"/>
    </contour>
    <contour>
      <point x="161" y="0" type="line"/>
      <point x="342" y="0" type="line"/>
      <point x="342" y="996" type="line"/>
      <point x="161" y="996" type="line"/>
    </contour>
  </outline>
</glyph>
<glyph name="odieresis" format="1">
  <advance width="1198"/>
  <unicode hex="00F6"/>
  <outline>
    <contour>
      <point x="599" y="132" type="curve" smooth="yes"/>
      <point x="801" y="132"/>
      <point x="940" y="299"/>
      <point x="940" y="498" type="curve" smooth="yes"/>
      <point x="940" y="701"/>
      <point x="801" y="863"/>
      <point x="599" y="863" type="curve" smooth="yes"/>
      <point x="397" y="863"/>
      <point x="260" y="701"/>
      <point x="260" y="498" type="curve" smooth="yes"/>
      <point x="260" y="299"/>
      <point x="397" y="132"/>
    </contour>
    <contour>
      <point x="411" y="1149" type="curve" smooth="yes"/>
      <point x="353" y="1149"/>
      <point x="295" y="1186"/>
      <point x="295" y="1262" type="curve" smooth="yes"/>
      <point x="295" y="1341"/>
      <point x="353" y="1382"/>
      <point x="411" y="1382" type="curve" smooth="yes"/>
      <point x="469" y="1382"/>
      <point x="529" y="1341"/>
      <point x="529" y="1262" type="curve" smooth="yes"/>
      <point x="529" y="1185"/>
      <point x="469" y="1149"/>
    </contour>
    <contour>
      <point x="599" y="-19" type="curve" smooth="yes"/>
      <point x="882" y="-19"/>
      <point x="1119" y="186"/>
      <point x="1119" y="500" type="curve" smooth="yes"/>
      <point x="1119" y="811"/>
      <point x="882" y="1017"/>
      <point x="599" y="1017" type="curve" smooth="yes"/>
      <point x="316" y="1017"/>
      <point x="81" y="811"/>
      <point x="81" y="500" type="curve" smooth="yes"/>
      <point x="81" y="186"/>
      <point x="316" y="-19"/>
    </contour>
    <contour>
      <point x="787" y="1149" type="curve" smooth="yes"/>
      <point x="846" y="1149"/>
      <point x="904" y="1185"/>
      <point x="904" y="1262" type="curve" smooth="yes"/>
      <point x="904" y="1341"/>
      <point x="846" y="1382"/>
      <point x="787" y="1382" type="curve" smooth="yes"/>
      <point x="730" y="1382"/>
      <point x="670" y="1341"/>
      <point x="670" y="1262" type="curve" smooth="yes"/>
      <point x="670" y="1186"/>
      <point x="730" y="1149"/>
    </contour>
  </outline>
</glyph>
<glyph name="ydieresis" format="1">
  <advance width="1003"/>
  <unicode hex="00FF"/>
  <outline>
    <contour>
      <point x="203" y="-269" type="line"/>
      <point x="400" y="-269" type="line"/>
      <point x="993" y="997" type="line"/>
      <point x="800" y="997" type="line"/>
      <point x="535" y="407" type="line"/>
      <point x="263" y="997" type="line"/>
      <point x="45" y="997" type="line"/>
      <point x="434" y="246" type="line"/>
    </contour>
    <contour>
      <point x="330" y="1148" type="curve" smooth="yes"/>
      <point x="388" y="1148"/>
      <point x="448" y="1184"/>
      <point x="448" y="1260" type="curve" smooth="yes"/>
      <point x="448" y="1340"/>
      <point x="388" y="1381"/>
      <point x="330" y="1381" type="curve" smooth="yes"/>
      <point x="272" y="1381"/>
      <point x="214" y="1340"/>
      <point x="214" y="1260" type="curve" smooth="yes"/>
      <point x="214" y="1186"/>
      <point x="272" y="1148"/>
    </contour>
    <contour>
      <point x="706" y="1148" type="curve" smooth="yes"/>
      <point x="765" y="1148"/>
      <point x="823" y="1184"/>
      <point x="823" y="1260" type="curve" smooth="yes"/>
      <point x="823" y="1340"/>
      <point x="765" y="1381"/>
      <point x="706" y="1381" type="curve" smooth="yes"/>
      <point x="649" y="1381"/>
      <point x="589" y="1340"/>
      <point x="589" y="1260" type="curve" smooth="yes"/>
      <point x="589" y="1186"/>
      <point x="649" y="1148"/>
    </contour>
  </outline>
</glyph>
<glyph name="cdotaccent" format="1">
  <advance width="964"/>
  <unicode hex="010B"/>
  <outline>
    <contour>
      <point x="592" y="-20" type="curve" smooth="yes"/>
      <point x="617" y="-20"/>
      <point x="772" y="-13"/>
      <point x="863" y="44" type="curve"/>
      <point x="863" y="210" type="line"/>
      <point x="846" y="210" type="line"/>
      <point x="774" y="166"/>
      <point x="683" y="132"/>
      <point x="604" y="132" type="curve" smooth="yes"/>
      <point x="375" y="132"/>
      <point x="265" y="327"/>
      <point x="265" y="501" type="curve" smooth="yes"/>
      <point x="265" y="675"/>
      <point x="384" y="863"/>
      <point x="601" y="863" type="curve" smooth="yes"/>
      <point x="702" y="863"/>
      <point x="751" y="844"/>
      <point x="840" y="796" type="curve"/>
      <point x="840" y="960" type="line"/>
      <point x="785" y="996"/>
      <point x="671" y="1016"/>
      <point x="585" y="1016" type="curve" smooth="yes"/>
      <point x="318" y="1016"/>
      <point x="81" y="809"/>
      <point x="81" y="499" type="curve" smooth="yes"/>
      <point x="81" y="194"/>
      <point x="303" y="-20"/>
    </contour>
    <contour>
      <point x="472" y="1148" type="curve" smooth="yes"/>
      <point x="536" y="1148"/>
      <point x="602" y="1189"/>
      <point x="602" y="1275" type="curve" smooth="yes"/>
      <point x="602" y="1363"/>
      <point x="536" y="1409"/>
      <point x="472" y="1409" type="curve" smooth="yes"/>
      <point x="407" y="1409"/>
      <point x="342" y="1365"/>
      <point x="342" y="1275" type="curve" smooth="yes"/>
      <point x="342" y="1189"/>
      <point x="407" y="1148"/>
    </contour>
  </outline>
</glyph>
<glyph name="Emacron" format="1">
  <advance width="1060"/>
  <unicode hex="0112"/>
  <outline>
    <contour>
      <point x="128" y="0" type="line"/>
      <point x="973" y="0" type="line"/>
      <point x="973" y="177" type="line"/>
      <point x="319" y="177" type="line"/>
      <point x="319" y="682" type="line"/>
      <point x="946" y="682" type="line"/>
      <point x="946" y="857" type="line"/>
      <point x="319" y="857" type="line"/>
      <point x="319" y="1338" type="line"/>
      <point x="960" y="1338" type="line"/>
      <point x="960" y="1516" type="line"/>
      <point x="128" y="1516" type="line"/>
    </contour>
    <contour>
      <point x="287" y="1668" type="line"/>
      <point x="801" y="1668" type="line"/>
      <point x="801" y="1820" type="line"/>
      <point x="287" y="1820" type="line"/>
    </contour>
  </outline>
</glyph>
<glyph name="Imacron" format="1">
  <advance width="429"/>
  <unicode hex="012A"/>
  <outline>
    <contour>
      <point x="119" y="0" type="line"/>
      <point x="311" y="0" type="line"/>
      <point x="311" y="1516" type="line"/>
      <point x="119" y="1516" type="line"/>
    </contour>
    <contour>
      <point x="-42" y="1668" type="line"/>
      <point x="471" y="1668" type="line"/>
      <point x="471" y="1820" type="line"/>
      <point x="-42" y="1820" type="line"/>
    </contour>
  </outline>
</glyph>
<glyph name="Ncommaaccent" format="1">
  <advance width="1595"/>
  <unicode hex="0145"/>
  <outline>
    <contour>
      <point x="126" y="0" type="line"/>
      <point x="308" y="0" type="line"/>
      <point x="308" y="1194" type="line"/>
      <point x="1305" y="0" type="line"/>
      <point x="1469" y="0" type="line"/>
      <point x="1469" y="1517" type="line"/>
      <point x="1284" y="1517" type="line"/>
      <point x="1284" y="312" type="line"/>
      <point x="280" y="1517" type="line"/>
      <point x="126" y="1517" type="line"/>
    </contour>
    <contour>
      <point x="697" y="-604" type="line"/>
      <point x="801" y="-604"/>
      <point x="933" y="-412"/>
      <point x="933" y="-278" type="curve" smooth="yes"/>
      <point x="933" y="-177"/>
      <point x="861" y="-132"/>
      <point x="793" y="-132" type="curve" smooth="yes"/>
      <point x="724" y="-132"/>
      <point x="660" y="-178"/>
      <point x="660" y="-269" type="curve" smooth="yes"/>
      <point x="660" y="-321"/>
      <point x="691" y="-374"/>
      <point x="759" y="-392" type="curve"/>
      <point x="759" y="-471"/>
      <point x="735" y="-523"/>
      <point x="674" y="-578" type="curve"/>
    </contour>
  </outline>
</glyph>
<glyph name="ohungarumlaut" format="1">
  <advance width="1198"/>
  <unicode hex="0151"/>
  <outline>
    <contour>
      <point x="286" y="1148" type="curve" smooth="yes"/>
      <point x="293" y="1148"/>
      <point x="301" y="1156"/>
      <point x="311" y="1170" type="curve" smooth="yes"/>
      <point x="532" y="1461" type="line" smooth="yes"/>
      <point x="556" y="1492"/>
      <point x="566" y="1522"/>
      <point x="566" y="1546" type="curve" smooth="yes"/>
      <point x="566" y="1599"/>
      <point x="522" y="1633"/>
      <point x="476" y="1633" type="curve" smooth="yes"/>
      <point x="436" y="1633"/>
      <point x="396" y="1608"/>
      <point x="378" y="1546" type="curve"/>
      <point x="282" y="1184" type="line" smooth="yes"/>
      <point x="280" y="1177"/>
      <point x="275" y="1169"/>
      <point x="275" y="1163" type="curve" smooth="yes"/>
      <point x="275" y="1156"/>
      <point x="282" y="1148"/>
    </contour>
    <contour>
      <point x="643" y="1148" type="curve" smooth="yes"/>
      <point x="648" y="1148"/>
      <point x="659" y="1156"/>
      <point x="669" y="1170" type="curve" smooth="yes"/>
      <point x="891" y="1461" type="line" smooth="yes"/>
      <point x="915" y="1492"/>
      <point x="923" y="1522"/>
      <point x="923" y="1546" type="curve" smooth="yes"/>
      <point x="923" y="1599"/>
      <point x="878" y="1633"/>
      <point x="833" y="1633" type="curve" smooth="yes"/>
      <point x="793" y="1633"/>
      <point x="754" y="1608"/>
      <point x="734" y="1546" type="curve"/>
      <point x="638" y="1184" type="line"/>
      <point x="635" y="1177"/>
      <point x="635" y="1169"/>
      <point x="635" y="1163" type="curve" smooth="yes"/>
      <point x="635" y="1156"/>
      <point x="638" y="1148"/>
    </contour>
    <contour>
      <point x="599" y="132" type="curve" smooth="yes"/>
      <point x="397" y="132"/>
      <point x="260" y="298"/>
      <point x="260" y="498" type="curve" smooth="yes"/>
      <point x="260" y="700"/>
      <point x="397" y="863"/>
      <point x="599" y="863" type="curve" smooth="yes"/>
      <point x="801" y="863"/>
      <point x="940" y="700"/>
      <point x="940" y="498" type="curve" smooth="yes"/>
      <point x="940" y="298"/>
      <point x="801" y="132"/>
    </contour>
    <contour>
      <point x="599" y="-19" type="curve" smooth="yes"/>
      <point x="882" y="-19"/>
      <point x="1119" y="186"/>
      <point x="1119" y="500" type="curve" smooth="yes"/>
      <point x="1119" y="811"/>
      <point x="882" y="1016"/>
      <point x="599" y="1016" type="curve" smooth="yes"/>
      <point x="316" y="1016"/>
      <point x="81" y="811"/>
      <point x="81" y="500" type="curve" smooth="yes"/>
      <point x="81" y="186"/>
      <point x="316" y="-19"/>
    </contour>
  </outline>
</glyph>
<glyph name="sacute" format="1">
  <advance width="833"/>
  <unicode hex="015B"/>
  <outline>
    <contour>
      <point x="425" y="-19" type="curve" smooth="yes"/>
      <point x="617" y="-19"/>
      <point x="737" y="104"/>
      <point x="737" y="247" type="curve" smooth="yes"/>
      <point x="737" y="332"/>
      <point x="685" y="429"/>
      <point x="574" y="501" type="curve"/>
      <point x="391" y="616" type="line"/>
      <point x="309" y="673"/>
      <point x="287" y="718"/>
      <point x="287" y="755" type="curve" smooth="yes"/>
      <point x="287" y="842"/>
      <point x="360" y="871"/>
      <point x="443" y="871" type="curve" smooth="yes"/>
      <point x="529" y="871"/>
      <point x="614" y="832"/>
      <point x="667" y="803" type="curve"/>
      <point x="704" y="945" type="line"/>
      <point x="635" y="988"/>
      <point x="521" y="1016"/>
      <point x="432" y="1016" type="curve" smooth="yes"/>
      <point x="218" y="1016"/>
      <point x="105" y="891"/>
      <point x="105" y="755" type="curve" smooth="yes"/>
      <point x="105" y="662"/>
      <point x="145" y="565"/>
      <point x="262" y="496" type="curve" smooth="yes"/>
      <point x="473" y="371" type="line"/>
      <point x="544" y="326"/>
      <point x="566" y="282"/>
      <point x="566" y="242" type="curve" smooth="yes"/>
      <point x="566" y="168"/>
      <point x="504" y="135"/>
      <point x="423" y="135" type="curve" smooth="yes"/>
      <point x="318" y="135"/>
      <point x="198" y="180"/>
      <point x="122" y="235" type="curve"/>
      <point x="103" y="89" type="line"/>
      <point x="171" y="20"/>
      <point x="302" y="-19"/>
    </contour>
    <contour>
      <point x="259" y="1148" type="curve" smooth="yes"/>
      <point x="263" y="1148"/>
      <point x="274" y="1156"/>
      <point x="283" y="1170" type="curve"/>
      <point x="504" y="1461" type="line" smooth="yes"/>
      <point x="527" y="1492"/>
      <point x="538" y="1522"/>
      <point x="538" y="1546" type="curve" smooth="yes"/>
      <point x="538" y="1599"/>
      <point x="492" y="1633"/>
      <point x="447" y="1633" type="curve" smooth="yes"/>
      <point x="407" y="1633"/>
      <point x="367" y="1608"/>
      <point x="349" y="1546" type="curve"/>
      <point x="252" y="1184" type="line" smooth="yes"/>
      <point x="250" y="1177"/>
      <point x="249" y="1169"/>
      <point x="249" y="1163" type="curve" smooth="yes"/>
      <point x="249" y="1156"/>
      <point x="252" y="1148"/>
    </contour>
  </outline>
</glyph>
<glyph name="Uring" format="1">
  <advance width="1486"/>
  <unicode hex="016E"/>
  <outline>
    <contour>
      <point x="744" y="-19" type="curve" smooth="yes"/>
      <point x="1049" y="-19"/>
      <point x="1356" y="181"/>
      <point x="1356" y="587" type="curve" smooth="yes"/>
      <point x="1356" y="1515" type="line"/>
      <point x="1164" y="1515" type="line"/>
      <point x="1164" y="591" type="line" smooth="yes"/>
      <point x="1164" y="300"/>
      <point x="953" y="154"/>
      <point x="741" y="154" type="curve" smooth="yes"/>
      <point x="529" y="154"/>
      <point x="321" y="300"/>
      <point x="321" y="591" type="curve" smooth="yes"/>
      <point x="321" y="1515" type="line"/>
      <point x="129" y="1515" type="line"/>
      <point x="129" y="586" type="line" smooth="yes"/>
      <point x="129" y="181"/>
      <point x="438" y="-19"/>
    </contour>
    <contour>
      <point x="743" y="1769" type="curve" smooth="yes"/>
      <point x="681" y="1769"/>
      <point x="618" y="1810"/>
      <point x="618" y="1885" type="curve" smooth="yes"/>
      <point x="618" y="1962"/>
      <point x="680" y="1999"/>
      <point x="742" y="1999" type="curve" smooth="yes"/>
      <point x="804" y="1999"/>
      <point x="865" y="1962"/>
      <point x="865" y="1885" type="curve" smooth="yes"/>
      <point x="865" y="1810"/>
      <point x="805" y="1769"/>
    </contour>
    <contour>
      <point x="742" y="1668" type="curve" smooth="yes"/>
      <point x="862" y="1668"/>
      <point x="981" y="1740"/>
      <point x="981" y="1885" type="curve" smooth="yes"/>
      <point x="981" y="2029"/>
      <point x="862" y="2102"/>
      <point x="743" y="2102" type="curve" smooth="yes"/>
      <point x="623" y="2102"/>
      <point x="504" y="2029"/>
      <point x="504" y="1886" type="curve" smooth="yes"/>
      <point x="504" y="1742"/>
      <point x="623" y="1668"/>
    </contour>
  </outline>
</glyph>
<glyph name="Uogonek" format="1">
  <advance width="1486"/>
  <unicode hex="0172"/>
  <outline>
    <contour>
      <point x="770" y="-431" type="curve" smooth="yes"/>
      <point x="783" y="-431"/>
      <point x="799" y="-430"/>
      <point x="813" y="-426" type="curve"/>
      <point x="843" y="-302" type="line"/>
      <point x="842" y="-302" type="line"/>
      <point x="718" y="-302"/>
      <point x="655" y="-240"/>
      <point x="655" y="-176" type="curve" smooth="yes"/>
      <point x="655" y="-128"/>
      <point x="695" y="-77"/>
      <point x="771" y="-51" type="curve"/>
      <point x="751" y="-19" type="line"/>
      <point x="1054" y="-16"/>
      <point x="1356" y="185"/>
      <point x="1356" y="587" type="curve" smooth="yes"/>
      <point x="1356" y="1516" type="line"/>
      <point x="1164" y="1516" type="line"/>
      <point x="1164" y="592" type="line" smooth="yes"/>
      <point x="1164" y="301"/>
      <point x="953" y="155"/>
      <point x="741" y="155" type="curve" smooth="yes"/>
      <point x="529" y="155"/>
      <point x="321" y="301"/>
      <point x="321" y="592" type="curve" smooth="yes"/>
      <point x="321" y="1516" type="line"/>
      <point x="129" y="1516" type="line"/>
      <point x="129" y="586" type="line" smooth="yes"/>
      <point x="129" y="215"/>
      <point x="390" y="15"/>
      <point x="670" y="-15" type="curve"/>
      <point x="581" y="-44"/>
      <point x="536" y="-127"/>
      <point x="536" y="-211" type="curve" smooth="yes"/>
      <point x="536" y="-324"/>
      <point x="629" y="-431"/>
    </contour>
  </outline>
</glyph>
<glyph name="uogonek" format="1">
  <advance width="1003"/>
  <unicode hex="0173"/>
  <outline>
    <contour>
      <point x="526" y="-430" type="line"/>
      <point x="539" y="-430"/>
      <point x="555" y="-429"/>
      <point x="569" y="-426" type="curve"/>
      <point x="599" y="-300" type="line"/>
      <point x="597" y="-300" type="line" smooth="yes"/>
      <point x="474" y="-300"/>
      <point x="411" y="-239"/>
      <point x="411" y="-176" type="curve" smooth="yes"/>
      <point x="411" y="-127"/>
      <point x="451" y="-76"/>
      <point x="527" y="-50" type="curve"/>
      <point x="501" y="-8" type="line"/>
      <point x="579" y="11"/>
      <point x="656" y="57"/>
      <point x="720" y="130" type="curve"/>
      <point x="720" y="1" type="line"/>
      <point x="895" y="1" type="line"/>
      <point x="895" y="999" type="line"/>
      <point x="718" y="999" type="line"/>
      <point x="718" y="273" type="line"/>
      <point x="662" y="188"/>
      <point x="551" y="128"/>
      <point x="452" y="128" type="curve" smooth="yes"/>
      <point x="358" y="128"/>
      <point x="279" y="184"/>
      <point x="279" y="326" type="curve" smooth="yes"/>
      <point x="279" y="999" type="line"/>
      <point x="100" y="999" type="line"/>
      <point x="100" y="337" type="line" smooth="yes"/>
      <point x="100" y="103"/>
      <point x="251" y="-16"/>
      <point x="416" y="-17" type="curve"/>
      <point x="333" y="-48"/>
      <point x="292" y="-128"/>
      <point x="292" y="-209" type="curve" smooth="yes"/>
      <point x="292" y="-321"/>
      <point x="385" y="-429"/>
      <point x="526" y="-429" type="curve"/>
    </contour>
  </outline>
</glyph>
<glyph name="uni01F4" format="1">
  <advance width="1543"/>
  <unicode hex="01F4"/>
  <outline>
    <contour>
      <point x="870" y="-20" type="curve" smooth="yes"/>
      <point x="1027" y="-20"/>
      <point x="1210" y="17"/>
      <point x="1421" y="106" type="curve"/>
      <point x="1421" y="730" type="line"/>
      <point x="953" y="730" type="line"/>
      <point x="953" y="557" type="line"/>
      <point x="1228" y="557" type="line"/>
      <point x="1228" y="219" type="line"/>
      <point x="1227" y="219" type="line"/>
      <point x="1105" y="168"/>
      <point x="989" y="146"/>
      <point x="886" y="146" type="curve" smooth="yes"/>
      <point x="531" y="146"/>
      <point x="303" y="411"/>
      <point x="303" y="730" type="curve" smooth="yes"/>
      <point x="303" y="1135"/>
      <point x="592" y="1376"/>
      <point x="936" y="1376" type="curve" smooth="yes"/>
      <point x="1081" y="1376"/>
      <point x="1238" y="1333"/>
      <point x="1386" y="1242" type="curve"/>
      <point x="1386" y="1408" type="line"/>
      <point x="1235" y="1495"/>
      <point x="1077" y="1536"/>
      <point x="921" y="1536" type="curve" smooth="yes"/>
      <point x="468" y="1536"/>
      <point x="106" y="1206"/>
      <point x="106" y="732" type="curve" smooth="yes"/>
      <point x="106" y="391"/>
      <point x="347" y="-20"/>
    </contour>
    <contour>
      <point x="622" y="1668" type="curve" smooth="yes"/>
      <point x="629" y="1668"/>
      <point x="639" y="1674"/>
      <point x="647" y="1690" type="curve"/>
      <point x="869" y="1981" type="line"/>
      <point x="893" y="2011"/>
      <point x="904" y="2040"/>
      <point x="904" y="2066" type="curve" smooth="yes"/>
      <point x="904" y="2119"/>
      <point x="858" y="2153"/>
      <point x="812" y="2153" type="curve" smooth="yes"/>
      <point x="773" y="2153"/>
      <point x="732" y="2128"/>
      <point x="714" y="2066" type="curve"/>
      <point x="618" y="1704" type="line" smooth="yes"/>
      <point x="616" y="1696"/>
      <point x="615" y="1687"/>
      <point x="615" y="1683" type="curve" smooth="yes"/>
      <point x="615" y="1674"/>
      <point x="618" y="1668"/>
    </contour>
  </outline>
</glyph>
<glyph name="uni01F5" format="1">
  <advance width="1069"/>
  <unicode hex="01F5"/>
  <outline>
    <contour>
      <point x="551" y="-437" type="curve" smooth="yes"/>
      <point x="756" y="-437"/>
      <point x="958" y="-345"/>
      <point x="958" y="-54" type="curve" smooth="yes"/>
      <point x="958" y="997" type="line"/>
      <point x="783" y="997" type="line"/>
      <point x="783" y="885" type="line"/>
      <point x="694" y="975"/>
      <point x="603" y="1016"/>
      <point x="516" y="1016" type="curve" smooth="yes"/>
      <point x="298" y="1016"/>
      <point x="80" y="805"/>
      <point x="80" y="526" type="curve" smooth="yes"/>
      <point x="80" y="268"/>
      <point x="230" y="0"/>
      <point x="538" y="0" type="curve" smooth="yes"/>
      <point x="676" y="0"/>
      <point x="777" y="84"/>
      <point x="780" y="87" type="curve"/>
      <point x="795" y="32"/>
      <point x="803" y="-17"/>
      <point x="803" y="-59" type="curve" smooth="yes"/>
      <point x="803" y="-230"/>
      <point x="696" y="-291"/>
      <point x="559" y="-291" type="curve" smooth="yes"/>
      <point x="467" y="-291"/>
      <point x="361" y="-264"/>
      <point x="263" y="-223" type="curve"/>
      <point x="263" y="-380" type="line"/>
      <point x="344" y="-414"/>
      <point x="448" y="-437"/>
    </contour>
    <contour>
      <point x="384" y="1149" type="curve" smooth="yes"/>
      <point x="388" y="1149"/>
      <point x="399" y="1155"/>
      <point x="408" y="1169" type="curve"/>
      <point x="629" y="1461" type="line" smooth="yes"/>
      <point x="652" y="1492"/>
      <point x="663" y="1521"/>
      <point x="663" y="1546" type="curve" smooth="yes"/>
      <point x="663" y="1599"/>
      <point x="617" y="1634"/>
      <point x="572" y="1634" type="curve" smooth="yes"/>
      <point x="532" y="1634"/>
      <point x="492" y="1609"/>
      <point x="474" y="1546" type="curve"/>
      <point x="377" y="1183" type="line" smooth="yes"/>
      <point x="375" y="1177"/>
      <point x="374" y="1168"/>
      <point x="374" y="1164" type="curve" smooth="yes"/>
      <point x="374" y="1155"/>
      <point x="377" y="1149"/>
    </contour>
    <contour>
      <point x="571" y="152" type="curve" smooth="yes"/>
      <point x="386" y="152"/>
      <point x="264" y="286"/>
      <point x="264" y="516" type="curve" smooth="yes"/>
      <point x="264" y="733"/>
      <point x="408" y="862"/>
      <point x="557" y="862" type="curve" smooth="yes"/>
      <point x="626" y="862"/>
      <point x="704" y="835"/>
      <point x="780" y="773" type="curve"/>
      <point x="780" y="201" type="line"/>
      <point x="704" y="168"/>
      <point x="633" y="152"/>
    </contour>
  </outline>
</glyph>
<glyph name="uni0202" format="1">
  <advance width="1527"/>
  <unicode hex="0202"/>
  <outline>
    <contour>
      <point x="60" y="0" type="line"/>
      <point x="258" y="0" type="line"/>
      <point x="460" y="487" type="line"/>
      <point x="1064" y="487" type="line"/>
      <point x="1277" y="0" type="line"/>
      <point x="1463" y="0" type="line"/>
      <point x="1466" y="2" type="line"/>
      <point x="817" y="1516" type="line"/>
      <point x="674" y="1516" type="line"/>
    </contour>
    <contour>
      <point x="492" y="1668" type="curve"/>
      <point x="635" y="1668" type="line"/>
      <point x="645" y="1750"/>
      <point x="695" y="1793"/>
      <point x="762" y="1793" type="curve" smooth="yes"/>
      <point x="829" y="1793"/>
      <point x="880" y="1750"/>
      <point x="889" y="1668" type="curve"/>
      <point x="1032" y="1668" type="line"/>
      <point x="1026" y="1828"/>
      <point x="887" y="1920"/>
      <point x="763" y="1920" type="curve" smooth="yes"/>
      <point x="639" y="1920"/>
      <point x="499" y="1828"/>
    </contour>
    <contour>
      <point x="533" y="661" type="line"/>
      <point x="751" y="1265" type="line"/>
      <point x="988" y="661" type="line"/>
    </contour>
  </outline>
</glyph>
<glyph name="uni0204" format="1">
  <advance width="1060"/>
  <unicode hex="0204"/>
  <outline>
    <contour>
      <point x="128" y="0" type="line"/>
      <point x="973" y="0" type="line"/>
      <point x="973" y="177" type="line"/>
      <point x="319" y="177" type="line"/>
      <point x="319" y="682" type="line"/>
      <point x="946" y="682" type="line"/>
      <point x="946" y="856" type="line"/>
      <point x="319" y="856" type="line"/>
      <point x="319" y="1339" type="line"/>
      <point x="960" y="1339" type="line"/>
      <point x="960" y="1516" type="line"/>
      <point x="128" y="1516" type="line"/>
    </contour>
  </outline>
</glyph>
<glyph name="uni0208" format="1">
  <advance width="428"/>
  <unicode hex="0208"/>
  <outline>
    <contour>
      <point x="120" y="0" type="line"/>
      <point x="311" y="0" type="line"/>
      <point x="311" y="1516" type="line"/>
      <point x="120" y="1516" type="line"/>
    </contour>
  </outline>
</glyph>
<glyph name="uni0237" format="1">
  <advance width="508"/>
  <unicode hex="0237"/>
  <outline>
    <contour>
      <point x="54" y="-385" type="line"/>
      <point x="361" y="-385"/>
      <point x="400" y="-173"/>
      <point x="400" y="-79" type="curve" smooth="yes"/>
      <point x="400" y="998" type="line"/>
      <point x="214" y="998" type="line"/>
      <point x="214" y="3" type="line" smooth="yes"/>
      <point x="214" y="-112"/>
      <point x="215" y="-242"/>
      <point x="26" y="-242" type="curve"/>
    </contour>
  </outline>
</glyph>
<glyph name="breve" format="1">
  <advance width="648"/>
  <unicode hex="02D8"/>
  <outline>
    <contour>
      <point x="326" y="173" type="curve" smooth="yes"/>
      <point x="438" y="173"/>
      <point x="551" y="253"/>
      <point x="557" y="412" type="curve"/>
      <point x="452" y="412" type="line"/>
      <point x="443" y="330"/>
      <point x="383" y="287"/>
      <point x="325" y="287" type="curve" smooth="yes"/>
      <point x="267" y="287"/>
      <point x="208" y="330"/>
      <point x="199" y="412" type="curve"/>
      <point x="94" y="412" type="line"/>
      <point x="100" y="253"/>
      <point x="213" y="173"/>
    </contour>
  </outline>
</glyph>
<glyph name="quoteright" format="1">
  <advance width="468"/>
  <unicode hex="2019"/>
  <outline>
    <contour>
      <point x="141" y="1093" type="line"/>
      <point x="246" y="1093"/>
      <point x="378" y="1285"/>
      <point x="378" y="1419" type="curve" smooth="yes"/>
      <point x="378" y="1519"/>
      <point x="305" y="1567"/>
      <point x="235" y="1567" type="curve" smooth="yes"/>
      <point x="162" y="1567"/>
      <point x="90" y="1517"/>
      <point x="90" y="1428" type="curve" smooth="yes"/>
      <point x="90" y="1377"/>
      <point x="121" y="1327"/>
      <point x="190" y="1306" type="curve"/>
      <point x="190" y="1228"/>
      <point x="169" y="1174"/>
      <point x="117" y="1119" type="curve"/>
    </contour>
  </outline>
</glyph>
